<svg xmlns="http://www.w3.org/2000/svg" viewBox="0 0 98.8 69.07"><defs><style>.cls-1{fill:#ff4a16;}.cls-1,.cls-2{stroke:#000;stroke-miterlimit:10;stroke-width:0.5px;}.cls-2{fill:#023cff;}</style></defs><g id="Слой_2" data-name="Слой 2"><g id="Слой_2-2" data-name="Слой 2"><path class="cls-1" d="M81.81,35.32a32.17,32.17,0,0,1-.45,5.4l-74.93.15A31.82,31.82,0,0,1,6,35.32C6,16,22.94.25,43.88.25S81.81,16,81.81,35.32Z"/><path class="cls-2" d="M62.59,55.07a4.3,4.3,0,0,1-.4,1.9h0c-2.48,0-5,0-7.47,0l-21.5,0-24.4,0A4.11,4.11,0,0,1,8.12,55a4.26,4.26,0,0,1,.7-2.44h4.51l43.54-.09h4.68A4.33,4.33,0,0,1,62.59,55.07Z"/><path class="cls-2" d="M83.4,68.69l-64.83.13a4.09,4.09,0,0,1-.75-2.58,4,4,0,0,1,.77-2.13l17.53,0,21,0,25.63,0a5.42,5.42,0,0,1,.92,2.35A5.15,5.15,0,0,1,83.4,68.69Z"/><path class="cls-2" d="M93.15,45.36l-11.79,0-24.21.06-40.55.08-10.17,0H1.27a4.78,4.78,0,0,1-1-2.34,4.6,4.6,0,0,1,.3-2.32l5.84,0,74.93-.15c3.79,0,7.56,0,11.34,0a4.42,4.42,0,0,1,.93,2.22A4.05,4.05,0,0,1,93.15,45.36Z"/><path class="cls-2" d="M80.17,54.77a4.64,4.64,0,0,1-.53,2.17h-.35L68.23,57a4.54,4.54,0,0,1-.68-2.12,4.7,4.7,0,0,1,.52-2.45l11.46,0A5,5,0,0,1,80.17,54.77Z"/><path class="cls-2" d="M98.55,54.61a4.6,4.6,0,0,1-.64,2.3l-11.71,0a4.33,4.33,0,0,1-.72-2.09,4.25,4.25,0,0,1,.64-2.49l11.77,0A4.38,4.38,0,0,1,98.55,54.61Z"/><path class="cls-1" d="M53.19,62.4A5,5,0,0,0,54.69,64l-23.86,0a5.35,5.35,0,0,0,1.67-1.8,3.71,3.71,0,0,0-.06-3.56A4.88,4.88,0,0,0,30.76,57l24.42,0a5,5,0,0,0-2.26,2.46A3.5,3.5,0,0,0,53.19,62.4Z"/><path class="cls-1" d="M17.44,51.09a4.51,4.51,0,0,0-.84-5.57l40.55-.08a4.41,4.41,0,0,0-.9,5.71,5.44,5.44,0,0,0,1,1.26l-40.93.09A5.27,5.27,0,0,0,17.44,51.09Z"/><path class="cls-2" d="M93.15,45.36l-11.79,0-24.21.06-40.55.08-10.17,0H1.27a4.78,4.78,0,0,1-1-2.34,4.6,4.6,0,0,1,.3-2.32l5.84,0,74.93-.15c3.79,0,7.56,0,11.34,0a4.42,4.42,0,0,1,.93,2.22A4.05,4.05,0,0,1,93.15,45.36Z"/></g></g></svg>