<?xml version="1.0" standalone="no"?>
<!DOCTYPE svg PUBLIC "-//W3C//DTD SVG 20010904//EN"
 "http://www.w3.org/TR/2001/REC-SVG-20010904/DTD/svg10.dtd">
<svg version="1.0" xmlns="http://www.w3.org/2000/svg"
 width="624.000000pt" height="624.000000pt" viewBox="0 0 624.000000 624.000000"
 preserveAspectRatio="xMidYMid meet">
<metadata>
Created by potrace 1.14, written by Peter Selinger 2001-2017
</metadata>
<g transform="translate(0.000000,624.000000) scale(0.100000,-0.100000)"
fill="#000000" stroke="none">
<path d="M2908 5845 c-2 -2 -40 -7 -83 -10 -44 -3 -87 -8 -95 -10 -8 -2 -39
-7 -69 -10 -30 -4 -63 -9 -75 -11 -12 -2 -34 -7 -51 -10 -16 -3 -68 -14 -115
-25 -47 -12 -92 -22 -100 -24 -8 -2 -28 -8 -45 -15 -16 -6 -30 -10 -30 -9 0 1
-31 -8 -70 -20 -38 -13 -74 -24 -80 -26 -5 -1 -23 -7 -38 -13 -15 -7 -74 -31
-130 -53 -102 -42 -296 -139 -368 -185 -21 -13 -43 -24 -49 -24 -5 0 -10 -3
-10 -8 0 -4 -20 -18 -45 -32 -25 -14 -45 -28 -45 -32 0 -5 -5 -8 -11 -8 -6 0
-23 -9 -37 -20 -15 -12 -65 -50 -112 -86 -47 -35 -103 -79 -125 -97 -56 -46
-324 -314 -365 -366 -19 -24 -40 -48 -45 -55 -17 -19 -79 -98 -95 -122 -8 -12
-43 -62 -77 -112 -35 -50 -63 -94 -63 -97 0 -3 -5 -11 -11 -18 -24 -27 -152
-272 -212 -407 -61 -138 -157 -436 -182 -571 -3 -13 -7 -35 -10 -49 -3 -14 -7
-36 -10 -50 -3 -14 -7 -36 -10 -50 -2 -14 -7 -47 -11 -75 -3 -27 -8 -58 -10
-68 -25 -133 -25 -656 0 -797 3 -14 10 -59 16 -100 14 -89 17 -106 24 -142 3
-16 8 -38 10 -50 24 -124 114 -406 178 -558 50 -117 155 -327 169 -335 5 -4 7
-11 4 -16 -4 -5 0 -12 8 -15 9 -3 18 -17 22 -32 8 -32 20 -17 29 38 8 50 12
68 47 230 17 80 33 156 35 169 3 12 11 51 19 85 8 33 17 77 19 96 3 19 10 54
16 78 5 23 13 59 16 79 3 20 10 46 14 59 5 12 6 24 4 27 -3 3 -1 14 4 24 5 10
12 34 15 53 3 19 9 49 13 65 3 17 8 39 9 50 2 11 4 20 5 20 1 0 3 9 5 20 2 11
7 36 11 55 5 19 8 40 9 45 1 6 6 33 13 60 6 28 14 61 16 75 3 14 21 99 41 190
20 91 39 181 41 200 3 19 10 53 16 75 6 22 12 51 15 65 3 14 6 30 7 35 7 28
26 123 30 145 7 38 37 173 42 190 4 9 14 -4 27 -36 12 -28 27 -57 33 -65 6 -8
15 -25 19 -39 4 -14 16 -37 26 -52 11 -14 19 -29 19 -32 0 -3 75 -158 166
-343 333 -676 462 -940 468 -961 4 -12 12 -22 17 -22 5 0 9 -5 9 -11 0 -6 18
-48 40 -94 22 -46 40 -88 40 -94 0 -6 3 -11 8 -11 4 0 13 -15 21 -32 8 -18 79
-166 159 -328 79 -162 148 -305 153 -318 6 -15 17 -22 36 -23 16 -1 39 -2 53
-3 14 -2 63 -6 110 -10 47 -4 94 -9 105 -11 11 -2 58 -7 105 -10 109 -8 174
-14 228 -21 24 -3 42 -1 42 5 0 5 -45 87 -100 181 -55 95 -100 174 -100 175 0
2 -27 49 -60 105 -33 56 -60 103 -60 105 0 2 -13 26 -29 53 -16 27 -44 76 -62
108 -201 364 -235 424 -267 484 -20 36 -66 121 -103 189 l-67 125 45 28 c25
16 67 50 92 76 26 26 64 58 84 72 20 14 37 28 37 33 0 4 5 7 12 7 6 0 18 7 27
16 32 31 313 234 320 230 3 -2 6 -162 5 -355 -1 -193 2 -351 5 -352 3 0 13 -2
22 -4 39 -7 40 0 39 391 l0 380 32 24 c18 13 38 28 43 33 6 4 84 62 175 127
91 66 172 126 180 133 8 8 29 23 45 33 17 10 35 23 40 27 6 5 57 42 115 83 58
41 112 80 120 87 8 7 32 23 53 36 21 12 43 28 50 34 22 21 76 57 84 57 8 0 63
-85 63 -96 0 -3 5 -10 10 -17 6 -7 51 -77 100 -157 49 -80 93 -149 97 -155 5
-5 14 -21 20 -35 14 -27 35 -62 43 -70 6 -6 22 -32 52 -84 25 -42 30 -50 71
-113 15 -24 27 -46 27 -51 0 -5 9 -17 20 -27 11 -10 20 -22 20 -27 0 -5 18
-36 40 -69 22 -33 40 -62 40 -64 0 -2 32 -53 70 -114 39 -62 70 -116 70 -121
0 -6 4 -10 8 -10 8 0 36 -51 30 -54 -4 -3 -112 -79 -117 -83 -3 -2 -5 -160 -5
-352 -1 -192 -4 -352 -7 -355 -3 -3 -30 -2 -60 3 -30 5 -74 12 -99 15 -25 3
-54 7 -65 9 -11 3 -47 8 -80 11 -33 4 -73 10 -90 12 -16 3 -48 7 -70 9 -22 1
-47 5 -55 8 -8 3 -40 8 -70 11 -30 3 -66 8 -80 10 -34 6 -128 18 -165 22 -29
2 -84 10 -135 19 -14 2 -43 7 -65 10 -23 3 -51 7 -63 10 -12 2 -20 0 -18 -4 3
-4 38 -14 78 -21 40 -8 75 -14 78 -15 3 -1 25 -5 50 -9 25 -5 54 -10 65 -13
11 -2 43 -8 70 -13 28 -6 61 -12 75 -15 14 -3 37 -7 52 -10 14 -3 82 -16 150
-29 68 -13 141 -27 163 -32 22 -4 42 -8 45 -9 3 -1 25 -5 50 -9 25 -5 54 -10
65 -13 11 -2 29 -6 40 -8 71 -12 100 -17 119 -22 11 -2 35 -6 51 -9 17 -2 37
-7 45 -10 8 -3 33 -8 55 -10 22 -3 47 -8 55 -11 8 -3 29 -7 45 -9 17 -3 51 -9
76 -15 l46 -10 -3 -82 c-1 -45 -4 -168 -6 -274 l-3 -192 -70 -27 c-38 -15 -74
-31 -79 -36 -6 -4 -16 -8 -24 -8 -7 0 -38 -11 -68 -25 -30 -14 -57 -25 -60
-25 -3 0 -20 -6 -37 -14 -18 -7 -47 -19 -65 -26 -40 -15 -38 -18 19 -26 24 -3
55 -7 69 -9 14 -2 54 -7 90 -10 36 -4 67 -9 70 -10 3 -2 33 -6 67 -10 34 -3
72 -8 85 -10 13 -3 43 -7 68 -10 25 -3 54 -8 65 -10 11 -2 52 -7 90 -11 39 -3
73 -8 76 -10 3 -1 28 -6 56 -9 27 -3 58 -7 69 -9 10 -2 51 -7 89 -11 39 -4 79
-9 90 -12 96 -19 84 -25 187 93 l28 31 -21 24 c-11 13 -30 35 -42 49 -12 14
-65 75 -117 135 -52 61 -99 115 -105 121 -5 6 -29 33 -52 60 -44 53 -49 58
-133 154 -70 80 -75 86 -135 156 -27 32 -57 65 -65 74 -15 16 -99 114 -136
158 -10 13 -33 39 -51 59 l-31 36 281 93 c155 52 282 94 282 94 0 4 322 107
325 103 3 -2 5 -113 5 -246 0 -133 4 -241 8 -241 4 1 20 4 35 7 l28 6 0 266
c0 165 4 269 10 273 5 4 48 54 94 112 47 58 90 110 95 116 6 6 26 30 45 54 19
24 40 48 45 54 6 6 26 31 45 56 19 25 37 47 40 50 3 3 24 27 45 55 22 27 51
62 65 78 l26 28 89 -180 c50 -99 93 -180 97 -181 7 0 18 70 34 230 10 97 11
472 1 575 -16 162 -16 167 -32 245 -3 14 -7 43 -10 65 -3 22 -7 47 -10 55 -2
8 -7 27 -10 43 -12 64 -17 82 -50 194 -20 65 -37 125 -39 133 -3 8 -5 15 -6
15 -1 0 -3 7 -5 15 -5 24 -45 130 -71 188 -13 29 -24 55 -24 58 0 14 -119 247
-167 327 -29 48 -53 90 -53 92 0 13 -135 198 -237 325 -69 86 -318 342 -385
397 -21 17 -143 113 -193 151 -49 38 -194 132 -203 132 -7 0 -12 5 -12 10 0 6
-5 10 -11 10 -6 0 -23 8 -37 19 -46 32 -252 135 -367 183 -98 41 -303 114
-344 122 -33 6 -77 18 -101 27 -14 5 -42 11 -62 13 -21 2 -41 7 -45 9 -4 3
-26 8 -47 11 -21 4 -48 9 -60 12 -12 2 -37 6 -56 9 -19 2 -51 6 -70 9 -19 3
-57 9 -85 12 -60 7 -521 15 -527 9z"/>
<path d="M1365 1839 c-27 -10 -77 -27 -110 -39 l-60 -20 0 -315 c0 -173 3
-315 6 -315 4 0 54 23 113 50 l106 51 1 122 c0 67 1 198 2 290 1 92 0 174 -3
181 -4 10 -15 9 -55 -5z"/>
<path d="M880 1664 l-105 -42 0 -311 c0 -171 2 -311 4 -311 17 0 81 25 81 32
0 4 3 7 8 6 4 -2 36 10 72 26 l65 28 -3 202 c-1 110 -3 206 -3 211 0 24 0 142
1 167 0 15 -3 28 -7 31 -5 2 -55 -15 -113 -39z"/>
<path d="M3108 1563 c7 -3 16 -2 19 1 4 3 -2 6 -13 5 -11 0 -14 -3 -6 -6z"/>
</g>
</svg>
