<svg id="Слой_1" data-name="Слой 1" xmlns="http://www.w3.org/2000/svg" viewBox="0 0 77.74 68.06"><defs><style>.cls-1{fill:#fff;}.cls-2{fill:#184772;}.cls-3{fill:#ffbb24;}.cls-4{fill:#ff8b24;}.cls-5{fill:#21b0ff;}</style></defs><path class="cls-1" d="M54.89,44.46l-8.34,6-6.73,4.44L41.62,52s-14.3-3.92-15.39-4.29l17.3,3.63Z" transform="translate(-11.49 -14.68)"/><path class="cls-2" d="M50.36,14.68c-21.47,0-38.87,17.72-38.87,39.58A40,40,0,0,0,16,72.7c.42.8.86,1.59,1.33,2.36l.81-3.86,5.16-24.45,7.62,15.48L38.43,77.6l8.45.78q-2.79-4.78-5.58-9.77-2.64-4.74-5.14-9.38a5.15,5.15,0,0,0,1.47-1,7.38,7.38,0,0,0,.55-.61c1.9-1.43,3.81-2.84,5.74-4.27v9h.85V52.72q5.71-4.23,11.36-8.22l.33-.23,9.75,15.8-1.57,1.12V70l-.71-.09-1.32-.18L48.47,67.79l13.08,2.53,1.29.25,1.8.35,4.36.84-.18,6.86-5.49,2.21,14.16,1.91,1.26-1.42h0L79,81,69.06,69.54l-1.12-1.29,11.14-3.72v6.26l.89-.26V64l6.32-7.73,2.38,4.69a40.63,40.63,0,0,0,.55-6.66C89.23,32.4,71.83,14.68,50.36,14.68Zm-3.9,25c.16-.54.31-1.09.46-1.63l.21,1.6,2.11.49-2.13.25c-.13.49-.27,1-.41,1.45-.07-.49-.15-1-.23-1.47l-2-.53Zm.09,10.77-6.73,4.44L41.62,52s-14.3-3.92-15.39-4.29l17.3,3.63,11.36-6.9ZM66.12,33.14l-2.32-.47,2.27-.3c.14-.62.29-1.24.43-1.86l.33,1.79,2.43.43-2.4.4-.39,1.66C66.36,34.24,66.24,33.69,66.12,33.14ZM74.57,53c-.25,1-.49,2.08-.73,3.12-.23-1-.45-2.07-.68-3.1l-4.44-.88,4.35-.57.81-3.5c.22,1.13.43,2.25.64,3.37l4.64.8Zm.75-11.16a4.39,4.39,0,1,1,4.38-4.38A4.38,4.38,0,0,1,75.32,41.83Z" transform="translate(-11.49 -14.68)"/><path class="cls-3" d="M79.7,37.45a4.38,4.38,0,1,1-4.38-4.39A4.38,4.38,0,0,1,79.7,37.45Z" transform="translate(-11.49 -14.68)"/><path class="cls-4" d="M79.16,52.23,74.57,53c-.25,1-.49,2.08-.73,3.12-.23-1-.45-2.07-.68-3.1l-4.44-.88,4.35-.57.81-3.5c.22,1.13.43,2.25.64,3.37Z" transform="translate(-11.49 -14.68)"/><path class="cls-4" d="M69.26,32.73l-2.4.4-.39,1.66c-.11-.55-.23-1.1-.35-1.65l-2.32-.47,2.27-.3c.14-.62.29-1.24.43-1.86l.33,1.79Z" transform="translate(-11.49 -14.68)"/><path class="cls-4" d="M49.24,40.18l-2.13.25c-.13.49-.27,1-.41,1.45-.07-.49-.15-1-.23-1.47l-2-.53,2-.16c.16-.54.31-1.09.46-1.63l.21,1.6Z" transform="translate(-11.49 -14.68)"/><path class="cls-5" d="M24,74l-2.84,1.22V67.37l2.78-1.08Z" transform="translate(-11.49 -14.68)"/><path class="cls-5" d="M29.17,72l-2.78,1.34,0-7.92,2.84-1Z" transform="translate(-11.49 -14.68)"/></svg>